File Name

Loose Screws Screwballs II 1985 720p BRRip H264.mp4

File Size
Format : MPEG-4
Format profile : Base Media
Codec ID : isom
File size : 1.58 GiB
Duration : 1h 16mn
Overall bit rate : 2 942 Kbps

Video
ID : 1
Format : AVC
Format/Info : Advanced Video Codec
Format profile : High@L4.1
Format settings, CABAC : Yes
Format settings, ReFrames : 3 frames
Codec ID : avc1
Codec ID/Info : Advanced Video Coding
Duration : 1h 16mn
Bit rate mode : Variable
Bit rate : 2 299 Kbps
Maximum bit rate : 10.7 Mbps
Width : 1 280 pixels
Height : 720 pixels
Display aspect ratio : 16:9
Frame rate mode : Constant
Frame rate : 23.976 fps
Resolution : 24 bits
Colorimetry : 4:2:0
Scan type : Progressive
Bits/(Pixel*Frame) : 0.104
Stream size : 1.23 GiB (78%)

Audio #1
ID : 2
Format : AAC
Format/Info : Advanced Audio Codec
Format version : Version 4
Format profile : LC
Format settings, SBR : No
Codec ID : 40
Duration : 1h 16mn
Bit rate mode : Variable
Bit rate : 192 Kbps
Maximum bit rate : 197 Kbps
Channel(s) : 2 channels
Channel positions : L R
Sampling rate : 48.0 KHz
Resolution : 16 bits
Stream size : 105 MiB (6%)

Audio #2
ID : 3
Format : AAC
Format/Info : Advanced Audio Codec
Format version : Version 4
Format profile : LC
Format settings, SBR : No
Codec ID : 40
Duration : 1h 16mn
Bit rate mode : Variable
Bit rate : 448 Kbps
Maximum bit rate : 459 Kbps
Channel(s) : 2 channels
Channel positions : L R
Sampling rate : 48.0 KHz
Resolution : 16 bits
Stream size : 246 MiB (15%)

English SRT : ----

Language : English


 
http://www.imdb.com/title/tt0089501/

Release Date: August 1985 (USA) 

Genre: Comedy 

Plot: n the original tradition of "Screwballs," four horny teens try to get a shot at the sexy new French teacher. 

Cast: 
Bryan Genesse ... Brad Lovett
Lance Van Der Kolk ... Steve Hardman
Alan Deveau ... Hugh G. Rection
Jason Warren ... Marvin Eatmore
Annie McAuley ... Nikki Nystroke
Karen Wood ... Gail Poulet
Liz Green ... Tracey Gratehead
Mike MacDonald ... Mr. Arsenault
Cynthia Belliveau ... Mona Lott (as Cyd Belliveau)
Deborah Lobban ... Hilda Von Blow
Carolyn Tweedle ... Female Teacher
Stephanie Sulik ... Claudia Arsenault
Terrea Smith ... Wendy the Waitress (as Terrea Oster)
Wayne Fleming ... Pigpen M.C.
C.J. Fidler ... Bathtub Girl (as Cindy Fidler)




 
http://thepiratebay.org/user/hiest





Screenshots:
 
http://www.imagebam.com/image/10eee693859637
 
http://www.imagebam.com/image/89b42e93859642
 
http://www.imagebam.com/image/91f06e93859649
 
http://www.imagebam.com/image/7a155c93859655
 
http://www.imagebam.com/image/d578de93859664
 
http://www.imagebam.com/image/e92ad693859677
 
http://www.imagebam.com/image/6ace4c93859689
 
http://www.imagebam.com/image/9b6ec293859709
 
http://www.imagebam.com/image/6d590693859719